<mxfile host="app.diagrams.net" modified="2024-02-27T02:06:10.429Z" agent="Mozilla/5.0 (Windows NT 10.0; Win64; x64) AppleWebKit/537.36 (KHTML, like Gecko) Chrome/122.0.0.0 Safari/537.36" etag="xM6_cJLu8eQxBihXduTi" version="22.1.18" type="device">
  <diagram id="C5RBs43oDa-KdzZeNtuy" name="Page-1">
    <mxGraphModel dx="1434" dy="746" grid="1" gridSize="10" guides="1" tooltips="1" connect="1" arrows="1" fold="1" page="1" pageScale="1" pageWidth="827" pageHeight="1169" math="0" shadow="0">
      <root>
        <mxCell id="WIyWlLk6GJQsqaUBKTNV-0" />
        <mxCell id="WIyWlLk6GJQsqaUBKTNV-1" parent="WIyWlLk6GJQsqaUBKTNV-0" />
        <mxCell id="shsRv7zXWBH8EdQl9iQL-8" value="" style="group" parent="WIyWlLk6GJQsqaUBKTNV-1" vertex="1" connectable="0">
          <mxGeometry x="450" y="330" width="160" height="60" as="geometry" />
        </mxCell>
        <mxCell id="shsRv7zXWBH8EdQl9iQL-5" value="" style="rounded=0;whiteSpace=wrap;html=1;movable=1;resizable=1;rotatable=1;deletable=1;editable=1;locked=0;connectable=1;" parent="shsRv7zXWBH8EdQl9iQL-8" vertex="1">
          <mxGeometry width="160" height="60" as="geometry" />
        </mxCell>
        <mxCell id="shsRv7zXWBH8EdQl9iQL-6" value="" style="endArrow=none;html=1;rounded=0;entryX=1;entryY=0.5;entryDx=0;entryDy=0;exitX=0;exitY=0.5;exitDx=0;exitDy=0;" parent="shsRv7zXWBH8EdQl9iQL-8" source="shsRv7zXWBH8EdQl9iQL-5" target="shsRv7zXWBH8EdQl9iQL-5" edge="1">
          <mxGeometry width="50" height="50" relative="1" as="geometry">
            <mxPoint x="-150" y="200" as="sourcePoint" />
            <mxPoint x="-100" y="150" as="targetPoint" />
          </mxGeometry>
        </mxCell>
        <mxCell id="shsRv7zXWBH8EdQl9iQL-7" value="" style="endArrow=none;html=1;rounded=0;entryX=1;entryY=0.5;entryDx=0;entryDy=0;exitX=0;exitY=0.5;exitDx=0;exitDy=0;movable=1;resizable=1;rotatable=1;deletable=1;editable=1;locked=0;connectable=1;" parent="shsRv7zXWBH8EdQl9iQL-8" edge="1">
          <mxGeometry width="50" height="50" relative="1" as="geometry">
            <mxPoint y="26" as="sourcePoint" />
            <mxPoint x="160" y="26" as="targetPoint" />
          </mxGeometry>
        </mxCell>
        <mxCell id="shsRv7zXWBH8EdQl9iQL-9" value="" style="rounded=0;whiteSpace=wrap;html=1;" parent="WIyWlLk6GJQsqaUBKTNV-1" vertex="1">
          <mxGeometry x="440" y="320" width="160" height="60" as="geometry" />
        </mxCell>
        <mxCell id="zkfFHV4jXpPFQw0GAbJ--0" value="Context" style="swimlane;fontStyle=2;align=center;verticalAlign=top;childLayout=stackLayout;horizontal=1;startSize=26;horizontalStack=0;resizeParent=1;resizeLast=0;collapsible=1;marginBottom=0;rounded=0;shadow=0;strokeWidth=1;" parent="WIyWlLk6GJQsqaUBKTNV-1" vertex="1">
          <mxGeometry x="220" y="120" width="160" height="138" as="geometry">
            <mxRectangle x="230" y="140" width="160" height="26" as="alternateBounds" />
          </mxGeometry>
        </mxCell>
        <mxCell id="zkfFHV4jXpPFQw0GAbJ--1" value="- strategy" style="text;align=left;verticalAlign=top;spacingLeft=4;spacingRight=4;overflow=hidden;rotatable=0;points=[[0,0.5],[1,0.5]];portConstraint=eastwest;" parent="zkfFHV4jXpPFQw0GAbJ--0" vertex="1">
          <mxGeometry y="26" width="160" height="26" as="geometry" />
        </mxCell>
        <mxCell id="zkfFHV4jXpPFQw0GAbJ--4" value="" style="line;html=1;strokeWidth=1;align=left;verticalAlign=middle;spacingTop=-1;spacingLeft=3;spacingRight=3;rotatable=0;labelPosition=right;points=[];portConstraint=eastwest;" parent="zkfFHV4jXpPFQw0GAbJ--0" vertex="1">
          <mxGeometry y="52" width="160" height="8" as="geometry" />
        </mxCell>
        <mxCell id="zkfFHV4jXpPFQw0GAbJ--5" value="+ setStrategy(strategy)" style="text;align=left;verticalAlign=top;spacingLeft=4;spacingRight=4;overflow=hidden;rotatable=0;points=[[0,0.5],[1,0.5]];portConstraint=eastwest;" parent="zkfFHV4jXpPFQw0GAbJ--0" vertex="1">
          <mxGeometry y="60" width="160" height="26" as="geometry" />
        </mxCell>
        <mxCell id="shsRv7zXWBH8EdQl9iQL-0" value="+ doSomething()" style="text;align=left;verticalAlign=top;spacingLeft=4;spacingRight=4;overflow=hidden;rotatable=0;points=[[0,0.5],[1,0.5]];portConstraint=eastwest;" parent="zkfFHV4jXpPFQw0GAbJ--0" vertex="1">
          <mxGeometry y="86" width="160" height="26" as="geometry" />
        </mxCell>
        <mxCell id="zkfFHV4jXpPFQw0GAbJ--13" value="ConcreteStrategies" style="swimlane;fontStyle=0;align=center;verticalAlign=top;childLayout=stackLayout;horizontal=1;startSize=26;horizontalStack=0;resizeParent=1;resizeLast=0;collapsible=1;marginBottom=0;rounded=0;shadow=0;strokeWidth=1;" parent="WIyWlLk6GJQsqaUBKTNV-1" vertex="1">
          <mxGeometry x="440" y="320" width="160" height="60" as="geometry">
            <mxRectangle x="340" y="380" width="170" height="26" as="alternateBounds" />
          </mxGeometry>
        </mxCell>
        <mxCell id="zkfFHV4jXpPFQw0GAbJ--15" value="" style="line;html=1;strokeWidth=1;align=left;verticalAlign=middle;spacingTop=-1;spacingLeft=3;spacingRight=3;rotatable=0;labelPosition=right;points=[];portConstraint=eastwest;" parent="zkfFHV4jXpPFQw0GAbJ--13" vertex="1">
          <mxGeometry y="26" width="160" height="8" as="geometry" />
        </mxCell>
        <mxCell id="shsRv7zXWBH8EdQl9iQL-1" value="+ execute(date)" style="text;align=left;verticalAlign=top;spacingLeft=4;spacingRight=4;overflow=hidden;rotatable=0;points=[[0,0.5],[1,0.5]];portConstraint=eastwest;" parent="zkfFHV4jXpPFQw0GAbJ--13" vertex="1">
          <mxGeometry y="34" width="160" height="26" as="geometry" />
        </mxCell>
        <mxCell id="zkfFHV4jXpPFQw0GAbJ--17" value="&lt;&lt;interface&gt;&gt;&#xa;Strategy" style="swimlane;fontStyle=0;align=center;verticalAlign=top;childLayout=stackLayout;horizontal=1;startSize=40;horizontalStack=0;resizeParent=1;resizeLast=0;collapsible=1;marginBottom=0;rounded=0;shadow=0;strokeWidth=1;" parent="WIyWlLk6GJQsqaUBKTNV-1" vertex="1">
          <mxGeometry x="440" y="120" width="160" height="140" as="geometry">
            <mxRectangle x="550" y="140" width="160" height="26" as="alternateBounds" />
          </mxGeometry>
        </mxCell>
        <mxCell id="zkfFHV4jXpPFQw0GAbJ--23" value="" style="line;html=1;strokeWidth=1;align=left;verticalAlign=middle;spacingTop=-1;spacingLeft=3;spacingRight=3;rotatable=0;labelPosition=right;points=[];portConstraint=eastwest;" parent="zkfFHV4jXpPFQw0GAbJ--17" vertex="1">
          <mxGeometry y="40" width="160" height="8" as="geometry" />
        </mxCell>
        <mxCell id="zkfFHV4jXpPFQw0GAbJ--25" value="+ execute(data)" style="text;align=left;verticalAlign=top;spacingLeft=4;spacingRight=4;overflow=hidden;rotatable=0;points=[[0,0.5],[1,0.5]];portConstraint=eastwest;" parent="zkfFHV4jXpPFQw0GAbJ--17" vertex="1">
          <mxGeometry y="48" width="160" height="26" as="geometry" />
        </mxCell>
        <mxCell id="shsRv7zXWBH8EdQl9iQL-10" value="Client" style="rounded=0;whiteSpace=wrap;html=1;" parent="WIyWlLk6GJQsqaUBKTNV-1" vertex="1">
          <mxGeometry x="220" y="320" width="160" height="30" as="geometry" />
        </mxCell>
        <mxCell id="shsRv7zXWBH8EdQl9iQL-16" value="" style="endArrow=open;html=1;endSize=12;startArrow=diamondThin;startSize=14;startFill=0;edgeStyle=orthogonalEdgeStyle;align=left;verticalAlign=bottom;rounded=0;" parent="WIyWlLk6GJQsqaUBKTNV-1" edge="1">
          <mxGeometry x="-1" y="3" relative="1" as="geometry">
            <mxPoint x="380" y="160" as="sourcePoint" />
            <mxPoint x="440" y="160" as="targetPoint" />
          </mxGeometry>
        </mxCell>
        <mxCell id="shsRv7zXWBH8EdQl9iQL-17" value="" style="endArrow=block;dashed=1;endFill=0;endSize=12;html=1;rounded=0;exitX=0.5;exitY=0;exitDx=0;exitDy=0;entryX=0.5;entryY=1;entryDx=0;entryDy=0;" parent="WIyWlLk6GJQsqaUBKTNV-1" source="zkfFHV4jXpPFQw0GAbJ--13" target="zkfFHV4jXpPFQw0GAbJ--17" edge="1">
          <mxGeometry width="160" relative="1" as="geometry">
            <mxPoint x="220" y="420" as="sourcePoint" />
            <mxPoint x="380" y="420" as="targetPoint" />
          </mxGeometry>
        </mxCell>
        <mxCell id="shsRv7zXWBH8EdQl9iQL-19" value="" style="endArrow=open;endFill=1;endSize=12;html=1;rounded=0;exitX=0.5;exitY=0;exitDx=0;exitDy=0;entryX=0.5;entryY=1;entryDx=0;entryDy=0;" parent="WIyWlLk6GJQsqaUBKTNV-1" source="shsRv7zXWBH8EdQl9iQL-10" target="zkfFHV4jXpPFQw0GAbJ--0" edge="1">
          <mxGeometry width="160" relative="1" as="geometry">
            <mxPoint x="140" y="420" as="sourcePoint" />
            <mxPoint x="300" y="420" as="targetPoint" />
          </mxGeometry>
        </mxCell>
        <mxCell id="shsRv7zXWBH8EdQl9iQL-18" value="" style="endArrow=open;endSize=12;dashed=1;html=1;rounded=0;exitX=1;exitY=0.5;exitDx=0;exitDy=0;entryX=0;entryY=0.25;entryDx=0;entryDy=0;" parent="WIyWlLk6GJQsqaUBKTNV-1" source="shsRv7zXWBH8EdQl9iQL-10" target="zkfFHV4jXpPFQw0GAbJ--13" edge="1">
          <mxGeometry width="160" relative="1" as="geometry">
            <mxPoint x="380" y="340" as="sourcePoint" />
            <mxPoint x="540" y="340" as="targetPoint" />
          </mxGeometry>
        </mxCell>
        <mxCell id="shsRv7zXWBH8EdQl9iQL-20" value="&lt;font style=&quot;font-size: 11px;&quot;&gt;str = new SomeStrategy()&lt;br&gt;context.setStrategy(str)&lt;br&gt;&lt;/font&gt;&lt;div style=&quot;font-size: 11px;&quot;&gt;&lt;span style=&quot;background-color: initial;&quot;&gt;&lt;font style=&quot;font-size: 11px;&quot;&gt;context.doSomething()&lt;/font&gt;&lt;/span&gt;&lt;/div&gt;&lt;div style=&quot;font-size: 11px;&quot;&gt;&lt;span style=&quot;background-color: initial;&quot;&gt;&lt;font style=&quot;font-size: 11px;&quot;&gt;// ...&lt;/font&gt;&lt;/span&gt;&lt;/div&gt;&lt;div style=&quot;font-size: 11px;&quot;&gt;&lt;span style=&quot;background-color: initial;&quot;&gt;&lt;font style=&quot;font-size: 11px;&quot;&gt;other = new OtherStrategy()&lt;/font&gt;&lt;/span&gt;&lt;/div&gt;&lt;div style=&quot;font-size: 11px;&quot;&gt;&lt;span style=&quot;background-color: initial;&quot;&gt;&lt;font style=&quot;font-size: 11px;&quot;&gt;context.setStrategy(other)&lt;/font&gt;&lt;/span&gt;&lt;/div&gt;&lt;div style=&quot;font-size: 11px;&quot;&gt;&lt;span style=&quot;background-color: initial;&quot;&gt;&lt;font style=&quot;font-size: 11px;&quot;&gt;context.doSomething()&lt;/font&gt;&lt;/span&gt;&lt;/div&gt;" style="html=1;dropTarget=0;whiteSpace=wrap;align=left;fillColor=#f5f5f5;fontColor=#333333;strokeColor=#666666;" parent="WIyWlLk6GJQsqaUBKTNV-1" vertex="1">
          <mxGeometry x="220" y="380" width="160" height="100" as="geometry" />
        </mxCell>
        <mxCell id="shsRv7zXWBH8EdQl9iQL-21" value="" style="shape=module;jettyWidth=8;jettyHeight=4;" parent="shsRv7zXWBH8EdQl9iQL-20" vertex="1">
          <mxGeometry x="1" width="20" height="20" relative="1" as="geometry">
            <mxPoint x="-27" y="7" as="offset" />
          </mxGeometry>
        </mxCell>
        <mxCell id="shsRv7zXWBH8EdQl9iQL-22" value="" style="endArrow=none;dashed=1;html=1;rounded=0;entryX=0.5;entryY=1;entryDx=0;entryDy=0;fillColor=#f5f5f5;strokeColor=#666666;" parent="WIyWlLk6GJQsqaUBKTNV-1" source="shsRv7zXWBH8EdQl9iQL-20" target="shsRv7zXWBH8EdQl9iQL-10" edge="1">
          <mxGeometry width="50" height="50" relative="1" as="geometry">
            <mxPoint x="160" y="410" as="sourcePoint" />
            <mxPoint x="210" y="360" as="targetPoint" />
          </mxGeometry>
        </mxCell>
        <mxCell id="shsRv7zXWBH8EdQl9iQL-24" value="&lt;span style=&quot;font-size: 11px;&quot;&gt;strategy.execute()&lt;/span&gt;" style="html=1;dropTarget=0;whiteSpace=wrap;align=left;fillColor=#f5f5f5;fontColor=#333333;strokeColor=#666666;" parent="WIyWlLk6GJQsqaUBKTNV-1" vertex="1">
          <mxGeometry x="140" y="270" width="120" height="30" as="geometry" />
        </mxCell>
        <mxCell id="shsRv7zXWBH8EdQl9iQL-25" value="" style="shape=module;jettyWidth=8;jettyHeight=4;" parent="shsRv7zXWBH8EdQl9iQL-24" vertex="1">
          <mxGeometry x="1" width="20" height="20" relative="1" as="geometry">
            <mxPoint x="-27" y="5" as="offset" />
          </mxGeometry>
        </mxCell>
        <mxCell id="shsRv7zXWBH8EdQl9iQL-26" value="" style="endArrow=none;dashed=1;html=1;rounded=0;entryX=0;entryY=0.5;entryDx=0;entryDy=0;fillColor=#f5f5f5;strokeColor=#666666;exitX=0.556;exitY=-0.039;exitDx=0;exitDy=0;exitPerimeter=0;" parent="WIyWlLk6GJQsqaUBKTNV-1" source="shsRv7zXWBH8EdQl9iQL-24" target="shsRv7zXWBH8EdQl9iQL-0" edge="1">
          <mxGeometry width="50" height="50" relative="1" as="geometry">
            <mxPoint x="190" y="270" as="sourcePoint" />
            <mxPoint x="190" y="240" as="targetPoint" />
            <Array as="points">
              <mxPoint x="207" y="219" />
            </Array>
          </mxGeometry>
        </mxCell>
        <mxCell id="shsRv7zXWBH8EdQl9iQL-45" value="" style="group;fillColor=#dae8fc;strokeColor=#6c8ebf;container=0;" parent="WIyWlLk6GJQsqaUBKTNV-1" vertex="1" connectable="0">
          <mxGeometry x="40" y="360" width="150" height="120" as="geometry" />
        </mxCell>
        <mxCell id="shsRv7zXWBH8EdQl9iQL-48" value="" style="group" parent="WIyWlLk6GJQsqaUBKTNV-1" vertex="1" connectable="0">
          <mxGeometry x="40" y="120" width="150" height="130" as="geometry" />
        </mxCell>
        <mxCell id="shsRv7zXWBH8EdQl9iQL-35" value="" style="group;fillColor=#dae8fc;strokeColor=#6c8ebf;container=0;" parent="shsRv7zXWBH8EdQl9iQL-48" vertex="1" connectable="0">
          <mxGeometry width="150" height="130" as="geometry" />
        </mxCell>
        <mxCell id="shsRv7zXWBH8EdQl9iQL-33" value="&lt;b&gt;上下文（Context）&lt;/b&gt;是&lt;br&gt;維護指向&lt;span style=&quot;&quot;&gt;策略實例的引用，&lt;br&gt;&lt;/span&gt;&lt;span style=&quot;&quot;&gt;且通過策略介面&lt;/span&gt;&lt;span style=&quot;&quot;&gt;進行交流&lt;/span&gt;" style="html=1;whiteSpace=wrap;fillColor=#dae8fc;strokeColor=#6c8ebf;" parent="shsRv7zXWBH8EdQl9iQL-48" vertex="1">
          <mxGeometry y="30" width="150" height="100" as="geometry" />
        </mxCell>
        <mxCell id="shsRv7zXWBH8EdQl9iQL-31" value="&lt;font style=&quot;font-size: 18px;&quot;&gt;1&lt;/font&gt;" style="shape=umlFrame;whiteSpace=wrap;html=1;pointerEvents=0;fillColor=#dae8fc;strokeColor=#6c8ebf;" parent="shsRv7zXWBH8EdQl9iQL-48" vertex="1">
          <mxGeometry width="150" height="130" as="geometry" />
        </mxCell>
        <mxCell id="shsRv7zXWBH8EdQl9iQL-49" value="" style="group" parent="WIyWlLk6GJQsqaUBKTNV-1" vertex="1" connectable="0">
          <mxGeometry x="630" y="120" width="150" height="140" as="geometry" />
        </mxCell>
        <mxCell id="shsRv7zXWBH8EdQl9iQL-36" value="" style="group;fillColor=#dae8fc;strokeColor=#6c8ebf;container=0;" parent="shsRv7zXWBH8EdQl9iQL-49" vertex="1" connectable="0">
          <mxGeometry width="150" height="140" as="geometry" />
        </mxCell>
        <mxCell id="shsRv7zXWBH8EdQl9iQL-37" value="&lt;b&gt;策略（Strategy）&lt;/b&gt;接口&lt;br&gt;是所有策略的通用接口，&lt;br&gt;用於上下文宣告策略的方法" style="html=1;whiteSpace=wrap;fillColor=#dae8fc;strokeColor=#6c8ebf;" parent="shsRv7zXWBH8EdQl9iQL-49" vertex="1">
          <mxGeometry y="30" width="150" height="110" as="geometry" />
        </mxCell>
        <mxCell id="shsRv7zXWBH8EdQl9iQL-38" value="&lt;font style=&quot;font-size: 18px;&quot;&gt;2&lt;/font&gt;" style="shape=umlFrame;whiteSpace=wrap;html=1;pointerEvents=0;fillColor=#dae8fc;strokeColor=#6c8ebf;" parent="shsRv7zXWBH8EdQl9iQL-49" vertex="1">
          <mxGeometry width="150" height="140" as="geometry" />
        </mxCell>
        <mxCell id="shsRv7zXWBH8EdQl9iQL-50" value="" style="group" parent="WIyWlLk6GJQsqaUBKTNV-1" vertex="1" connectable="0">
          <mxGeometry x="630" y="320" width="150" height="120" as="geometry" />
        </mxCell>
        <mxCell id="shsRv7zXWBH8EdQl9iQL-39" value="" style="group;fillColor=#dae8fc;strokeColor=#6c8ebf;container=0;" parent="shsRv7zXWBH8EdQl9iQL-50" vertex="1" connectable="0">
          <mxGeometry width="150" height="120" as="geometry" />
        </mxCell>
        <mxCell id="shsRv7zXWBH8EdQl9iQL-40" value="&lt;b&gt;具體策略&lt;br&gt;（Concrete Strategies）&lt;br&gt;&lt;/b&gt;實現各種不同算法" style="html=1;whiteSpace=wrap;fillColor=#dae8fc;strokeColor=#6c8ebf;align=center;" parent="shsRv7zXWBH8EdQl9iQL-50" vertex="1">
          <mxGeometry y="30" width="150" height="90" as="geometry" />
        </mxCell>
        <mxCell id="shsRv7zXWBH8EdQl9iQL-41" value="&lt;font style=&quot;font-size: 18px;&quot;&gt;3&lt;/font&gt;" style="shape=umlFrame;whiteSpace=wrap;html=1;pointerEvents=0;fillColor=#dae8fc;strokeColor=#6c8ebf;" parent="shsRv7zXWBH8EdQl9iQL-50" vertex="1">
          <mxGeometry width="150" height="120.00000000000003" as="geometry" />
        </mxCell>
        <mxCell id="shsRv7zXWBH8EdQl9iQL-51" value="" style="group" parent="WIyWlLk6GJQsqaUBKTNV-1" vertex="1" connectable="0">
          <mxGeometry x="440" y="410" width="160" height="70" as="geometry" />
        </mxCell>
        <mxCell id="shsRv7zXWBH8EdQl9iQL-42" value="" style="group;fillColor=#dae8fc;strokeColor=#6c8ebf;container=0;" parent="shsRv7zXWBH8EdQl9iQL-51" vertex="1" connectable="0">
          <mxGeometry width="160" height="70" as="geometry" />
        </mxCell>
        <mxCell id="shsRv7zXWBH8EdQl9iQL-43" value="上下文不清楚他的策略類型與算法，而是直接調用方法" style="html=1;whiteSpace=wrap;fillColor=#dae8fc;strokeColor=#6c8ebf;align=center;" parent="shsRv7zXWBH8EdQl9iQL-51" vertex="1">
          <mxGeometry y="30" width="160" height="40" as="geometry" />
        </mxCell>
        <mxCell id="shsRv7zXWBH8EdQl9iQL-44" value="&lt;span style=&quot;font-size: 18px;&quot;&gt;4&lt;/span&gt;" style="shape=umlFrame;whiteSpace=wrap;html=1;pointerEvents=0;fillColor=#dae8fc;strokeColor=#6c8ebf;" parent="shsRv7zXWBH8EdQl9iQL-51" vertex="1">
          <mxGeometry width="160" height="70.00000000000001" as="geometry" />
        </mxCell>
        <mxCell id="shsRv7zXWBH8EdQl9iQL-46" value="&lt;b&gt;客戶端（Client）&lt;/b&gt;創建一個特定的策略實例並設定到上下文。上下文提供一個Setter讓客戶端在執行期間替換策略。" style="html=1;whiteSpace=wrap;fillColor=#dae8fc;strokeColor=#6c8ebf;align=center;" parent="WIyWlLk6GJQsqaUBKTNV-1" vertex="1">
          <mxGeometry x="40" y="390" width="150" height="90" as="geometry" />
        </mxCell>
        <mxCell id="shsRv7zXWBH8EdQl9iQL-47" value="&lt;span style=&quot;font-size: 18px;&quot;&gt;5&lt;/span&gt;" style="shape=umlFrame;whiteSpace=wrap;html=1;pointerEvents=0;fillColor=#dae8fc;strokeColor=#6c8ebf;" parent="WIyWlLk6GJQsqaUBKTNV-1" vertex="1">
          <mxGeometry x="40" y="360" width="150" height="120.00000000000003" as="geometry" />
        </mxCell>
      </root>
    </mxGraphModel>
  </diagram>
</mxfile>
